# Blender v2.79 (sub 0) OBJ File: 'pigeon.blend'
# www.blender.org
mtllib pigeon_poop.mtl
o poop_Cube.007
v -0.100000 -0.100000 0.100000
v -0.100000 0.173573 0.100000
v -0.100000 -0.100000 -0.100000
v -0.100000 0.173573 -0.100000
v 0.100000 -0.100000 0.100000
v 0.100000 0.173573 0.100000
v 0.100000 -0.100000 -0.100000
v 0.100000 0.173573 -0.100000
v -0.122474 -0.122474 0.000000
v -0.122474 0.009683 0.122474
v -0.122474 0.220938 0.000000
v -0.122474 0.009683 -0.122474
v 0.000000 -0.122474 -0.122474
v 0.000000 0.220938 -0.122474
v 0.122474 0.009683 -0.122474
v 0.122474 -0.122474 0.000000
v 0.122474 0.220938 0.000000
v 0.122474 0.009683 0.122474
v 0.000000 -0.122474 0.122474
v 0.000000 0.220938 0.122474
v 0.000000 0.351271 0.000000
v 0.000000 -0.173205 0.000000
v 0.000000 0.009683 0.173205
v 0.173205 0.009683 0.000000
v 0.000000 0.009683 -0.173205
v -0.173205 0.009683 0.000000
vn -0.9987 -0.0515 0.0000
vn -0.8418 0.5397 0.0000
vn -0.6617 0.3526 -0.6617
vn -0.7060 -0.0547 -0.7060
vn 0.0000 -0.0515 -0.9987
vn 0.0000 0.5397 -0.8418
vn 0.6617 0.3526 -0.6617
vn 0.7060 -0.0547 -0.7060
vn 0.9987 -0.0515 0.0000
vn 0.8418 0.5397 0.0000
vn 0.6617 0.3526 0.6617
vn 0.7060 -0.0547 0.7060
vn 0.0000 -0.0515 0.9987
vn 0.0000 0.5397 0.8418
vn -0.6617 0.3526 0.6617
vn -0.7060 -0.0547 0.7060
vn 0.0000 -1.0000 0.0000
vn 0.7155 -0.6986 0.0000
vn 0.5838 -0.5642 0.5838
vn 0.0000 -0.6986 0.7155
vn 0.0000 1.0000 0.0000
vn -0.7155 -0.6986 0.0000
vn -0.5838 -0.5642 0.5838
vn -0.5838 -0.5642 -0.5838
vn 0.0000 -0.6986 -0.7155
vn 0.5838 -0.5642 -0.5838
usemtl poop
s 1
f 26//1 11//2 4//3 12//4
f 25//5 14//6 8//7 15//8
f 24//9 17//10 6//11 18//12
f 23//13 20//14 2//15 10//16
f 22//17 16//18 5//19 19//20
f 21//21 11//2 2//15 20//14
f 17//10 21//21 20//14 6//11
f 8//7 14//6 21//21 17//10
f 14//6 4//3 11//2 21//21
f 9//22 22//17 19//20 1//23
f 3//24 13//25 22//17 9//22
f 13//25 7//26 16//18 22//17
f 19//20 23//13 10//16 1//23
f 5//19 18//12 23//13 19//20
f 18//12 6//11 20//14 23//13
f 16//18 24//9 18//12 5//19
f 7//26 15//8 24//9 16//18
f 15//8 8//7 17//10 24//9
f 13//25 25//5 15//8 7//26
f 3//24 12//4 25//5 13//25
f 12//4 4//3 14//6 25//5
f 9//22 26//1 12//4 3//24
f 1//23 10//16 26//1 9//22
f 10//16 2//15 11//2 26//1
